<svg t="1585026955060" class="icon" viewBox="0 0 1024 1024" version="1.1" xmlns="http://www.w3.org/2000/svg" p-id="25886" width="200" height="200"><path d="M307.2 204.8h409.6a136.533333 136.533333 0 0 1 136.533333 136.533333v288.085334a108.612267 108.612267 0 0 1-108.612266 108.612266h-90.2144a34.133333 34.133333 0 0 0-28.501334 15.36l-85.504 129.6384a34.133333 34.133333 0 0 1-57.002666 0L397.994667 753.322667a34.133333 34.133333 0 0 0-28.501334-15.325867H279.278933A108.612267 108.612267 0 0 1 170.666667 629.418667V341.333333a136.533333 136.533333 0 0 1 136.533333-136.533333z m204.8 628.4288l71.2704-108.032a85.333333 85.333333 0 0 1 71.236267-38.365867h90.2144c31.709867 0 57.412267-25.7024 57.412266-57.412266V341.333333A85.333333 85.333333 0 0 0 716.8 256H307.2A85.333333 85.333333 0 0 0 221.866667 341.333333v288.085334c0 31.709867 25.7024 57.412267 57.412266 57.412266h90.2144a85.333333 85.333333 0 0 1 71.236267 38.365867L512 833.194667zM294.775467 447.624533a25.6 25.6 0 1 1 0-51.2h434.449066a25.6 25.6 0 0 1 0 51.2H294.775467z m0 155.136a25.6 25.6 0 1 1 0-51.2h310.306133a25.6 25.6 0 1 1 0 51.2h-310.272z" fill="#515151" p-id="25887"></path></svg>